<svg xmlns="http://www.w3.org/2000/svg" width="19" height="21" viewBox="0 0 19 21" fill="none">
    <path fill-rule="evenodd" clip-rule="evenodd" d="M4.48801 1.78143L7.49993 4.97732C7.87318 5.37363 7.87344 5.99463 7.50052 6.39127L6.04455 7.93982C6.95876 10.7348 9.00325 12.9708 11.5944 14.0281L11.8845 14.1407L13.2646 12.6729C13.6523 12.2606 14.2985 12.2427 14.708 12.633L17.7199 15.8289C18.0931 16.2252 18.0934 16.8462 17.7205 17.2428L16.9715 18.0395C15.6035 19.4944 13.5203 19.9045 11.6906 19.0789C9.1042 17.912 7.01722 16.4857 5.42964 14.8C3.84206 13.1143 2.49814 10.8976 1.39787 8.15009C0.650623 6.28412 0.974729 4.16885 2.21213 2.71538L2.37155 2.53721L3.04467 1.82128C3.43231 1.40899 4.07851 1.39115 4.48801 1.78143Z" stroke="black" stroke-width="1.5" stroke-linecap="round" stroke-linejoin="round"/>
</svg>
