<svg xmlns="http://www.w3.org/2000/svg" width="20" height="22" viewBox="0 0 20 22" fill="none">
    <path d="M18.9351 5.84827H14.911V4.17066C14.911 2.44575 13.4577 1.05469 11.6692 1.05469H8.59515C6.80661 1.05469 5.35341 2.44575 5.35341 4.17066V5.84827H1.32918C0.993831 5.84827 0.770264 6.07084 0.770264 6.4047V17.8197C0.770264 19.5447 2.22346 20.9357 4.012 20.9357H16.3083C18.0968 20.9357 19.55 19.5447 19.55 17.8197V6.4047C19.4941 6.12648 19.2705 5.84827 18.9351 5.84827ZM6.58303 4.17066C6.58303 3.05781 7.47731 2.16754 8.65104 2.16754H11.7251C12.8989 2.16754 13.849 3.05781 13.849 4.17066V5.84827H6.58303V4.17066ZM18.3763 17.8197C18.3763 18.9326 17.4261 19.8228 16.2524 19.8228H4.012C2.83827 19.8228 1.8881 18.9326 1.8881 17.8197V6.96112H18.3763V17.8197Z" fill="black" stroke="black" stroke-width="0.441876"/>
</svg>
