<svg xmlns="http://www.w3.org/2000/svg" width="24" height="25" viewBox="0 0 24 25" fill="none">
    <path d="M15.5303 14.9697C15.2374 14.6768 14.7626 14.6768 14.4697 14.9697C14.1768 15.2626 14.1768 15.7374 14.4697 16.0303L15.5303 14.9697ZM20.4697 22.0303C20.7626 22.3232 21.2374 22.3232 21.5303 22.0303C21.8232 21.7374 21.8232 21.2626 21.5303 20.9697L20.4697 22.0303ZM10 16.75C6.54822 16.75 3.75 13.9518 3.75 10.5H2.25C2.25 14.7802 5.71979 18.25 10 18.25V16.75ZM16.25 10.5C16.25 13.9518 13.4518 16.75 10 16.75V18.25C14.2802 18.25 17.75 14.7802 17.75 10.5H16.25ZM10 4.25C13.4518 4.25 16.25 7.04822 16.25 10.5H17.75C17.75 6.21979 14.2802 2.75 10 2.75V4.25ZM10 2.75C5.71979 2.75 2.25 6.21979 2.25 10.5H3.75C3.75 7.04822 6.54822 4.25 10 4.25V2.75ZM14.4697 16.0303L20.4697 22.0303L21.5303 20.9697L15.5303 14.9697L14.4697 16.0303Z"
          fill="currentColor"/>
</svg>
