<svg xmlns="http://www.w3.org/2000/svg" width="180" height="37" viewBox="0 0 180 37" fill="none">
    <g clip-path="url(#clip0_255_19794)">
        <path d="M131.025 35.8474V24.507C131.025 24.4075 130.579 24.4075 130.579 24.507C130.579 29.5416 127.689 35.4076 121.053 35.4076H117.022C116.819 35.4076 116.737 35.3594 116.737 35.2118V18.4934H117.671C120.929 18.4934 123.005 21.7682 123.005 25.0913C123.005 25.191 123.414 25.191 123.414 25.0913V11.3077C123.414 11.208 123.005 11.208 123.005 11.3077C123.005 14.6788 120.943 17.9057 117.671 17.9057H116.737V2.11857C116.737 1.97081 116.819 1.9227 117.022 1.9227H120.929C125.977 1.9227 128.421 7.29733 128.421 11.8438C128.421 11.9434 128.909 11.9434 128.909 11.8438V1.48283C128.909 1.43128 128.909 1.33506 128.747 1.33506H107.29C107.211 1.33506 107.211 1.9227 107.29 1.9227H110.874C111.036 1.9227 111.118 1.97081 111.118 2.11857V35.2083C111.118 35.3561 111.036 35.4041 110.874 35.4041H107.29C107.211 35.4041 107.211 35.9917 107.29 35.9917H130.905C130.984 35.9917 131.025 35.9402 131.025 35.8441V35.8474ZM179.229 25.0878C179.229 19.1257 175.971 16.9263 170.757 14.5792C165.671 12.3799 163.514 10.4245 163.514 6.90212C163.514 3.57907 165.508 1.08764 168.723 1.08764C172.387 1.08764 175.644 5.24232 175.644 9.88499C175.644 9.98463 176.091 9.98463 176.091 9.88499V0.647768C176.091 0.5 175.644 0.5 175.644 0.647768C175.566 1.18386 175.157 1.8196 173.974 1.8196C171.94 1.8196 170.922 0.5 168.681 0.5C164.607 0.5 160.868 5.14266 160.868 11.4486C160.868 17.2664 163.878 19.6961 167.664 21.3731C173.885 24.1119 176.291 25.2426 176.291 29.9779C176.291 33.1533 174.174 36.2908 169.489 36.2908C164.239 36.2908 161.105 28.7065 161.105 24.7957C161.105 24.6481 160.617 24.6481 160.617 24.7957V36.6825C160.617 36.8303 161.022 36.8303 161.105 36.6825C161.184 35.7959 161.51 34.8166 162.692 34.8166C164.411 34.8166 166.682 36.8303 169.53 36.8303C175.881 36.8303 179.222 30.4659 179.222 25.0878H179.229ZM155.359 25.0878C155.359 19.1257 152.101 16.9263 146.892 14.5792C141.802 12.3799 139.644 10.4245 139.644 6.90212C139.644 3.57907 141.637 1.08764 144.854 1.08764C148.517 1.08764 151.775 5.24232 151.775 9.88499C151.775 9.98463 152.222 9.98463 152.222 9.88499V0.647768C152.222 0.5 151.775 0.5 151.775 0.647768C151.692 1.18386 151.287 1.8196 150.105 1.8196C148.07 1.8196 147.053 0.5 144.812 0.5C140.744 0.5 136.998 5.14266 136.998 11.4486C136.998 17.2664 140.008 19.6961 143.795 21.3731C150.026 24.1223 152.428 25.2356 152.428 29.9642C152.428 33.1395 150.307 36.2771 145.627 36.2771C140.376 36.2771 137.242 28.6928 137.242 24.782C137.242 24.6342 136.754 24.6342 136.754 24.782V36.6688C136.754 36.8166 137.16 36.8166 137.242 36.6688C137.321 35.7822 137.647 34.8027 138.83 34.8027C140.548 34.8027 142.819 36.8166 145.668 36.8166C152.019 36.8166 155.359 30.4522 155.359 25.0741V25.0878ZM18.6051 25.0878C18.6051 19.1257 15.3472 16.9263 10.1376 14.5895C5.04816 12.3799 2.89006 10.4245 2.89006 6.90212C2.89006 3.59281 4.88665 1.08764 8.09974 1.08764C11.7665 1.08764 15.0242 5.24232 15.0242 9.88499C15.0242 9.98463 15.471 9.98463 15.471 9.88499V0.647768C15.471 0.5 15.0242 0.5 15.0242 0.647768C14.9417 1.18729 14.5328 1.8196 13.3541 1.8196C11.3163 1.8196 10.3094 0.5 8.06194 0.5C3.98972 0.5 0.243989 5.14266 0.243989 11.4486C0.243989 17.2664 3.25777 19.6961 7.0413 21.3731C13.2716 24.1223 15.6737 25.2356 15.6737 29.9642C15.6737 33.1395 13.5568 36.2771 8.87638 36.2771C3.62203 36.2771 0.487978 28.6928 0.487978 24.782C0.487978 24.6342 0 24.6342 0 24.782V36.6688C0 36.8166 0.405502 36.8166 0.487978 36.6688C0.570453 35.7822 0.89348 34.8027 2.07563 34.8027C3.79385 34.8027 6.06536 36.8166 8.91761 36.8166C15.2682 36.8166 18.6051 30.4522 18.6051 25.0741V25.0878ZM48.3303 1.50345C48.4129 1.50345 48.4129 0.915812 48.3303 0.915812H40.107C40.0244 0.915812 40.0244 1.50345 40.107 1.50345H43.7702C43.9352 1.50345 44.0141 1.55156 44.0141 1.69933V25.3078C44.0141 31.3216 41.5331 35.4283 35.8321 35.4283C31.2718 35.4283 30.0106 31.8096 30.0106 25.8955V1.69933C30.0106 1.55156 30.093 1.50345 30.2958 1.50345H33.8801C33.9591 1.50345 33.9591 0.915812 33.8801 0.915812H20.5672C20.4848 0.915812 20.4848 1.50345 20.5672 1.50345H24.1481C24.313 1.50345 24.392 1.55156 24.392 1.69933V25.8955C24.392 33.1773 28.7082 36.4145 34.7735 36.4145C41.5744 36.4145 44.5469 32.0537 44.5469 25.3078V1.69933C44.5469 1.55156 44.626 1.50345 44.7497 1.50345H48.3303ZM73.3959 36.7307V23.5243C73.3959 23.428 72.9492 23.428 72.9492 23.5243C72.9492 29.9298 68.9182 36.2908 63.9903 36.2908C62.1588 36.2908 60.5538 35.8441 59.4302 34.4247C57.5607 32.0811 56.8253 27.1428 56.8253 18.6858C56.8253 10.2286 57.5607 5.28356 59.4302 2.94333C60.5712 1.5275 61.956 1.08764 63.7875 1.08764C67.7773 1.08764 72.2139 7.39354 72.2139 12.2321C72.2139 12.3283 72.664 12.3283 72.664 12.2321V0.647768C72.664 0.548111 72.2139 0.548111 72.2139 0.647768C72.1348 1.18386 71.3203 1.8196 70.1794 1.8196C68.3065 1.8196 65.7429 0.5 63.7875 0.5C56.1346 0.5 50.5985 8.95713 50.5985 18.6858C50.5985 28.3628 56.2961 36.8303 64.0007 36.8303C66.2413 36.8303 69.2929 35.2564 71.1244 35.2564C71.5564 35.2403 71.9799 35.3805 72.3169 35.6514C72.6539 35.922 72.8822 36.3053 72.9594 36.7307C73.0007 36.7788 73.4063 36.7788 73.4063 36.7307H73.3959ZM101.95 36.7307V23.5243C101.95 23.428 101.503 23.428 101.503 23.5243C101.503 29.9298 97.4718 36.2908 92.5439 36.2908C90.7122 36.2908 89.1246 35.8441 87.9837 34.4247C86.1108 32.0811 85.379 27.1428 85.379 18.6858C85.379 10.2286 86.1108 5.28356 87.9837 2.94333C89.1246 1.5275 90.5095 1.08764 92.3412 1.08764C96.3309 1.08764 100.767 7.39354 100.767 12.2321C100.767 12.3283 101.218 12.3283 101.218 12.2321V0.647768C101.218 0.548111 100.767 0.548111 100.767 0.647768C100.688 1.18386 99.8739 1.8196 98.733 1.8196C96.8601 1.8196 94.2966 0.5 92.3412 0.5C84.6882 0.5 79.1521 8.95713 79.1521 18.6858C79.1521 28.3628 84.8497 36.8303 92.5542 36.8303C94.7948 36.8303 97.8463 35.2564 99.6781 35.2564C100.11 35.2403 100.533 35.3805 100.871 35.6514C101.208 35.922 101.436 36.3053 101.513 36.7307C101.551 36.7788 101.96 36.7788 101.96 36.7307H101.95Z"
              fill="#1D1D1B"/>
    </g>
</svg>
